<?xml version="1.0" encoding="utf-8"?>
<!-- Generator: Adobe Illustrator 27.3.1, SVG Export Plug-In . SVG Version: 6.00 Build 0)  -->
<svg version="1.1" id="Layer_1" xmlns="http://www.w3.org/2000/svg" xmlns:xlink="http://www.w3.org/1999/xlink" x="0px" y="0px"
	 viewBox="0 0 1000 310.9" style="enable-background:new 0 0 1000 310.9;" xml:space="preserve">
<g>
	<path d="M81.7,224v13.4H1.4V224h18.4V49.8c0-12-4.3-18.1-20.1-21.1v-8.7L61.3,0h2v224H81.7z"/>
	<path d="M155,78.2c40.5,0,75.9,35.1,75.9,81.2c0,46.1-35.4,81.2-75.9,81.2c-40.5,0-75.9-35.1-75.9-81.2
		C79.1,113.3,114.5,78.2,155,78.2z M155,90.9c-22.4,0-30.8,30.1-30.8,68.5c0,38.5,8.4,68.9,30.8,68.9s30.8-30.4,30.8-68.9
		C185.7,121,177.4,90.9,155,90.9z"/>
	<path d="M381.2,199.6c0,10,3.3,16.7,18.1,19.4v8.4l-52.8,13.4h-1.7c-4.7-8.4-7-21.7-7-31.8c-8.7,15-25.4,31.8-49.5,31.8
		c-28.1,0-43.5-19.4-43.5-50.8v-65.2c0-11-3-17.7-18.4-21.1V95l59.9-16h2v110c0,15,7,25.7,22.1,25.7c11.4,0,21.1-6,27.4-14.4v-75.6
		c0-11-3-17.7-18.4-21.1V95l59.8-16h2V199.6z"/>
	<path d="M578.7,224v13.4h-78.2V224h16.4v-91.3c0-15.4-6.7-27.4-23.4-27.4c-12,0-21.4,5-28.1,13.7v105h16.4v13.4h-78.2V224h18.4
		V123.4c0-9.7-3-16-18.1-18.7V96L457,78.2h1.7c4.3,8.4,6.7,22.1,6.7,32.1c8.7-14.4,26.1-32.1,50.2-32.1c28.8,0,44.8,19.4,44.8,51.8
		v94H578.7z"/>
	<path d="M647.2,184.6c-10,0-20.4-2-30.1-6c-4.7,3.3-7.4,7.4-7.4,11.7c0,8.4,7.4,13,21.4,14.7l52.2,5.7c26.4,3,50.5,14,50.5,42.5
		c0,37.4-41.8,57.8-84.6,57.8c-38.1,0-79.6-13.4-79.6-42.8c0-10.7,7-19.4,18.1-19.4c18.7,0,23.7,25.4,23.1,40.1c9,5.4,23.7,9,39.8,9
		c25.4,0,47.8-8.4,47.8-25.4c0-11.7-7.4-17.7-26.4-20.4l-48.1-7.7c-24.4-4-38.5-16.1-38.5-35.1c0-15,10.7-26.4,24.7-34.1
		c-16.7-8.7-29.4-23.7-29.4-43.8c0-34.1,36.4-53.2,66.5-53.2c14,0,29.4,4.3,42.1,12c11.4-14.4,24.4-22.1,38.8-22.1
		c14,0,23.7,7.7,23.7,19.1c0,10.4-8.7,16.7-18.4,16.7c-11.7,0-20.1-7.4-25.1-17.1c-3.7,2.3-7.4,6.4-10.4,10
		c9.4,8.7,15.7,20.4,15.7,34.4C713.7,165.5,676.9,184.6,647.2,184.6z M647.2,89.9c-14.7,0-23.7,15-23.7,41.5
		c0,26.7,9,41.5,23.7,41.5s23.7-14.7,23.7-41.5C670.9,105,661.9,89.9,647.2,89.9z"/>
	<path d="M801.7,240.7c-41.5,0-70.2-33.1-70.2-76.9c0-50.5,35.1-85.6,72.6-85.6c40.1,0,62.2,27.1,62.2,64.5l-96.3,15.4
		c4,35.4,25.4,54.5,50.8,54.5c15.4,0,29.1-6,40.1-21.1l6.7,5C855.5,223.7,831.7,240.7,801.7,240.7z M769.2,145.4l39.5-6.7
		c11.7-2.3,17.1-5.4,17.1-15.7c0-15-7-33.1-23.4-33.1C781.3,89.9,769.2,118.4,769.2,145.4z"/>
	<path d="M974.2,78.2c15.7,0,26.1,8.7,26.1,21.7c0,11.7-10,21.1-23.7,21.1c-12,0-22.4-7.7-27.1-16.7c-7,6.4-13.4,15-17.4,25.4V224
		h25.4v13.4h-86.9V224h18.1V123.4c0-9.7-3-16-18.1-18.7V96l53.2-17.7h1.7c4,8.4,6,22.1,6.7,35.8C938.7,96.6,953.1,78.2,974.2,78.2z"
		/>
</g>
</svg>
